<svg width="16" height="16" viewBox="0 0 16 16" fill="none" xmlns="http://www.w3.org/2000/svg">
<path d="M2.85009 1.79131C2.84982 1.94921 2.88071 2.10562 2.94102 2.25156C3.00132 2.39749 3.08984 2.53009 3.20149 2.64175C3.31315 2.75341 3.44575 2.84192 3.59168 2.90222C3.73762 2.96252 3.89403 2.99342 4.05193 2.99315L11.3323 2.99315L0.939866 13.3856C0.714867 13.6106 0.588464 13.9157 0.588465 14.2339C0.588464 14.5521 0.714866 14.8573 0.939866 15.0823C1.16487 15.3073 1.47003 15.4337 1.78823 15.4337C2.10642 15.4337 2.41159 15.3073 2.63659 15.0823L13.029 4.68987L13.0304 11.9716C13.0304 12.2904 13.157 12.5961 13.3824 12.8215C13.6078 13.0469 13.9135 13.1735 14.2323 13.1735C14.551 13.1735 14.8567 13.0469 15.0821 12.8215C15.3075 12.5961 15.4341 12.2904 15.4341 11.9716L15.4341 1.79131C15.4344 1.6334 15.4035 1.47699 15.3432 1.33106C15.2829 1.18512 15.1944 1.05252 15.0827 0.940863C14.9711 0.829206 14.8385 0.740689 14.6925 0.680388C14.5466 0.620087 14.3902 0.589187 14.2323 0.589461H4.05193C3.89403 0.589188 3.73762 0.620087 3.59169 0.680388C3.44575 0.740689 3.31315 0.829205 3.20149 0.940861C3.08983 1.05252 3.00132 1.18512 2.94102 1.33106C2.88072 1.47699 2.84982 1.6334 2.85009 1.79131Z" fill="white"/>
</svg>
