<svg width="11" height="11" viewBox="0 0 11 11" fill="none" xmlns="http://www.w3.org/2000/svg">
<path d="M2.28609 1.04991C2.28591 1.15624 2.30671 1.26156 2.34732 1.35983C2.38792 1.4581 2.44753 1.54738 2.52272 1.62257C2.5979 1.69776 2.68719 1.75736 2.78546 1.79796C2.88373 1.83857 2.98905 1.85938 3.09538 1.85919L7.99773 1.85919L0.999809 8.85711C0.848302 9.00862 0.763186 9.21411 0.763186 9.42837C0.763186 9.64264 0.848302 9.84812 0.999809 9.99963C1.15132 10.1511 1.3568 10.2363 1.57107 10.2363C1.78533 10.2363 1.99082 10.1511 2.14233 9.99963L9.14025 3.00171L9.1412 7.90502C9.1412 8.11965 9.22646 8.3255 9.37823 8.47727C9.53 8.62904 9.73585 8.7143 9.95048 8.7143C10.1651 8.7143 10.371 8.62904 10.5227 8.47727C10.6745 8.3255 10.7598 8.11965 10.7598 7.90502L10.7598 1.04991C10.76 0.94358 10.7391 0.838261 10.6985 0.739991C10.6579 0.641721 10.5983 0.552433 10.5231 0.477247C10.448 0.402062 10.3587 0.342457 10.2604 0.301852C10.1621 0.261247 10.0568 0.24044 9.95048 0.240625L3.09538 0.240625C2.98905 0.240441 2.88373 0.261248 2.78546 0.301852C2.68719 0.342457 2.5979 0.402061 2.52271 0.477247C2.44753 0.552432 2.38793 0.641721 2.34732 0.739991C2.30672 0.838261 2.28591 0.943581 2.28609 1.04991Z" fill="white"/>
</svg>
