<svg width="43" height="44" viewBox="0 0 43 44" fill="none" xmlns="http://www.w3.org/2000/svg">
<path d="M29.0409 28.0095C28.8559 28.0098 28.6725 27.9736 28.5015 27.9029C28.3304 27.8322 28.175 27.7285 28.0441 27.5976C27.9133 27.4667 27.8095 27.3113 27.7388 27.1402C27.6681 26.9692 27.6319 26.7859 27.6322 26.6008L27.6322 18.0674L15.4512 30.2484C15.1875 30.5122 14.8298 30.6603 14.4569 30.6603C14.0839 30.6603 13.7262 30.5122 13.4625 30.2484C13.1988 29.9847 13.0506 29.627 13.0506 29.2541C13.0506 28.8811 13.1988 28.5234 13.4625 28.2597L25.6435 16.0787L17.1085 16.077C16.7349 16.077 16.3766 15.9286 16.1124 15.6644C15.8482 15.4003 15.6998 15.042 15.6998 14.6683C15.6998 14.2947 15.8482 13.9364 16.1124 13.6723C16.3766 13.4081 16.7349 13.2597 17.1085 13.2597L29.0409 13.2597C29.226 13.2593 29.4093 13.2956 29.5804 13.3662C29.7515 13.4369 29.9069 13.5407 30.0377 13.6715C30.1686 13.8024 30.2724 13.9578 30.3431 14.1289C30.4137 14.2999 30.4499 14.4833 30.4496 14.6683L30.4496 26.6008C30.4499 26.7859 30.4137 26.9692 30.343 27.1402C30.2724 27.3113 30.1686 27.4667 30.0377 27.5976C29.9069 27.7285 29.7515 27.8322 29.5804 27.9029C29.4093 27.9736 29.226 28.0098 29.0409 28.0095Z" fill="white"/>
</svg>
